<svg width="510" height="510" viewBox="0 0 510 510" fill="none" xmlns="http://www.w3.org/2000/svg">
<path d="M162.5 406.848V121C162.5 120.448 162.948 120 163.5 120H263.5C307.13 120 342.5 155.37 342.5 199V212.085C342.5 251.25 310.75 283 271.585 283C260.707 283 254.814 295.735 261.855 304.027L342.2 398.647C342.39 398.871 342.669 399 342.963 399H405.5C408.261 399 410.5 396.761 410.5 394V120V65C410.5 62.2386 408.261 60 405.5 60H105C102.239 60 100 62.2386 100 65V407.5V454C100 456.761 102.239 459 105 459H269.992C272.156 459 272.778 456.041 270.798 455.169L163.097 407.763C162.734 407.603 162.5 407.244 162.5 406.848Z" fill="white" stroke="white"/>
</svg>
